<svg width="360" height="360" viewBox="0 0 360 360" fill="none" xmlns="http://www.w3.org/2000/svg">
  <rect width="360" height="360" rx="48" fill="url(#paint0_linear_kai)" />
  <path
    d="M72 288c66-12 110-54 138-120 22 54 60 93 120 108-31 21-66 36-102 36-56 0-108-10-156-24Z"
    fill="url(#paint1_linear_kai)"
    opacity="0.85"
  />
  <circle cx="120" cy="132" r="60" fill="url(#paint2_radial_kai)" opacity="0.7" />
  <path
    d="M174 90c18-12 46-12 62 4 18 18 16 46-6 60-24 16-54 14-68-4-16-20-8-48 12-60Z"
    fill="url(#paint3_linear_kai)"
    opacity="0.8"
  />
  <defs>
    <linearGradient id="paint0_linear_kai" x1="60" y1="40" x2="320" y2="320" gradientUnits="userSpaceOnUse">
      <stop stop-color="#071021" />
      <stop offset="1" stop-color="#101B3A" />
    </linearGradient>
    <linearGradient id="paint1_linear_kai" x1="84" y1="188" x2="292" y2="332" gradientUnits="userSpaceOnUse">
      <stop stop-color="#1F5BFF" stop-opacity="0.75" />
      <stop offset="1" stop-color="#61F9F5" stop-opacity="0.45" />
    </linearGradient>
    <radialGradient
      id="paint2_radial_kai"
      cx="0"
      cy="0"
      r="1"
      gradientUnits="userSpaceOnUse"
      gradientTransform="translate(120 132) rotate(90) scale(92)"
    >
      <stop stop-color="#61F9F5" stop-opacity="0.85" />
      <stop offset="1" stop-color="#61F9F5" stop-opacity="0" />
    </radialGradient>
    <linearGradient id="paint3_linear_kai" x1="170" y1="84" x2="238" y2="164" gradientUnits="userSpaceOnUse">
      <stop stop-color="#5F87FF" />
      <stop offset="1" stop-color="#52E2FF" stop-opacity="0.7" />
    </linearGradient>
  </defs>
</svg>

