<svg width="360" height="360" viewBox="0 0 360 360" fill="none" xmlns="http://www.w3.org/2000/svg">
  <rect width="360" height="360" rx="48" fill="url(#paint0_linear_lila)" />
  <circle cx="240" cy="132" r="84" fill="url(#paint1_radial_lila)" opacity="0.75" />
  <path
    d="M88 244c28-70 86-110 152-128-6 40-28 82-74 118-36 28-58 42-104 46l26-36Z"
    fill="url(#paint2_linear_lila)"
    opacity="0.85"
  />
  <path
    d="M108 92c22-8 54 8 62 30 8 24-10 52-34 58-26 6-58-12-64-38-6-28 16-46 36-50Z"
    fill="url(#paint3_linear_lila)"
    opacity="0.8"
  />
  <defs>
    <linearGradient id="paint0_linear_lila" x1="48" y1="36" x2="300" y2="320" gradientUnits="userSpaceOnUse">
      <stop stop-color="#160828" />
      <stop offset="0.52" stop-color="#221038" />
      <stop offset="1" stop-color="#0A0318" />
    </linearGradient>
    <radialGradient
      id="paint1_radial_lila"
      cx="0"
      cy="0"
      r="1"
      gradientUnits="userSpaceOnUse"
      gradientTransform="translate(240 132) rotate(45) scale(110)"
    >
      <stop stop-color="#B77BFF" stop-opacity="0.9" />
      <stop offset="1" stop-color="#B77BFF" stop-opacity="0" />
    </radialGradient>
    <linearGradient id="paint2_linear_lila" x1="112" y1="124" x2="252" y2="284" gradientUnits="userSpaceOnUse">
      <stop stop-color="#7827FF" stop-opacity="0.8" />
      <stop offset="1" stop-color="#61F9F5" stop-opacity="0.4" />
    </linearGradient>
    <linearGradient id="paint3_linear_lila" x1="124" y1="84" x2="178" y2="170" gradientUnits="userSpaceOnUse">
      <stop stop-color="#FF7BF2" stop-opacity="0.8" />
      <stop offset="1" stop-color="#61F9F5" stop-opacity="0.4" />
    </linearGradient>
  </defs>
</svg>

